<mxfile host="65bd71144e">
    <diagram id="NdUGr_FPVf6bdGO9faId" name="Page-1">
        <mxGraphModel dx="997" dy="692" grid="1" gridSize="10" guides="1" tooltips="1" connect="1" arrows="1" fold="1" page="1" pageScale="1" pageWidth="827" pageHeight="1169" background="#ffffff" math="0" shadow="1">
            <root>
                <mxCell id="0"/>
                <mxCell id="1" parent="0"/>
                <mxCell id="2" value="" style="rounded=0;whiteSpace=wrap;html=1;fontFamily=Comic Sans MS;labelBackgroundColor=#3E6957;fillColor=#3e6957;" vertex="1" parent="1">
                    <mxGeometry x="510" y="360" width="350" height="160" as="geometry"/>
                </mxCell>
                <mxCell id="3" value="" style="rounded=0;whiteSpace=wrap;html=1;fontFamily=Comic Sans MS;fontColor=none;noLabel=1;labelBackgroundColor=none;fillColor=#c6c5d4;" vertex="1" parent="1">
                    <mxGeometry x="190" y="360" width="214" height="160" as="geometry"/>
                </mxCell>
                <mxCell id="4" value="Ethereum" style="text;html=1;strokeColor=none;fillColor=none;align=center;verticalAlign=middle;whiteSpace=wrap;rounded=0;fontFamily=Comic Sans MS;fontSize=20;" vertex="1" parent="1">
                    <mxGeometry x="190" y="360" width="135" height="40" as="geometry"/>
                </mxCell>
                <mxCell id="5" value="Gnosis" style="text;html=1;strokeColor=none;fillColor=none;align=center;verticalAlign=middle;whiteSpace=wrap;rounded=0;fontFamily=Comic Sans MS;fontSize=20;fontColor=#FFFFFF;" vertex="1" parent="1">
                    <mxGeometry x="615" y="360" width="135" height="40" as="geometry"/>
                </mxCell>
                <mxCell id="33" value="Bridge Validator Oracle" style="shape=hexagon;perimeter=hexagonPerimeter2;whiteSpace=wrap;html=1;fixedSize=1;fillColor=#F0EBDE;strokeColor=#d79b00;fontFamily=Comic Sans MS;rounded=0;" vertex="1" parent="1">
                    <mxGeometry x="390" y="560" width="120" height="80" as="geometry"/>
                </mxCell>
                <mxCell id="34" value="Bridge Validator Oracle" style="shape=hexagon;perimeter=hexagonPerimeter2;whiteSpace=wrap;html=1;fixedSize=1;fillColor=#F0EBDE;strokeColor=#d6b656;fontFamily=Comic Sans MS;rounded=0;" vertex="1" parent="1">
                    <mxGeometry x="390" y="240" width="120" height="80" as="geometry"/>
                </mxCell>
                <mxCell id="35" value="executeAffirmation" style="endArrow=classic;html=1;exitX=1;exitY=0.25;exitDx=0;exitDy=0;entryX=0.25;entryY=1;entryDx=0;entryDy=0;strokeWidth=1;fontFamily=Comic Sans MS;labelBackgroundColor=none;rounded=0;curved=1;" edge="1" parent="1" source="33" target="7">
                    <mxGeometry x="-0.3189" y="-1" width="50" height="50" relative="1" as="geometry">
                        <mxPoint x="460" y="510" as="sourcePoint"/>
                        <mxPoint x="510" y="460" as="targetPoint"/>
                        <mxPoint as="offset"/>
                    </mxGeometry>
                </mxCell>
                <mxCell id="36" value="executeAffirmation" style="endArrow=classic;html=1;exitX=1;exitY=0.75;exitDx=0;exitDy=0;entryX=0.25;entryY=0;entryDx=0;entryDy=0;strokeWidth=1;fontFamily=Comic Sans MS;labelBackgroundColor=none;rounded=0;curved=1;" edge="1" parent="1" source="34" target="7">
                    <mxGeometry x="-0.2687" width="50" height="50" relative="1" as="geometry">
                        <mxPoint x="545" y="565" as="sourcePoint"/>
                        <mxPoint x="598.9732142857144" y="470" as="targetPoint"/>
                        <mxPoint x="-1" as="offset"/>
                    </mxGeometry>
                </mxCell>
                <mxCell id="37" value="Observes Deposit" style="endArrow=classic;dashed=1;html=1;strokeWidth=2;entryX=0;entryY=0.25;entryDx=0;entryDy=0;exitX=0.75;exitY=1;exitDx=0;exitDy=0;endFill=1;fontFamily=Comic Sans MS;labelBackgroundColor=none;rounded=0;curved=1;" edge="1" parent="1" target="33">
                    <mxGeometry x="0.3319" width="50" height="50" relative="1" as="geometry">
                        <mxPoint x="322.92857142857133" y="460" as="sourcePoint"/>
                        <mxPoint x="510" y="460" as="targetPoint"/>
                        <mxPoint as="offset"/>
                    </mxGeometry>
                </mxCell>
                <mxCell id="39" value="Observes Deposit" style="endArrow=classic;dashed=1;html=1;strokeWidth=2;entryX=0;entryY=0.75;entryDx=0;entryDy=0;exitX=0.75;exitY=0;exitDx=0;exitDy=0;endFill=1;fontFamily=Comic Sans MS;labelBackgroundColor=none;rounded=0;curved=1;" edge="1" parent="1" target="34">
                    <mxGeometry x="0.2385" y="2" width="50" height="50" relative="1" as="geometry">
                        <mxPoint x="322.92857142857133" y="400" as="sourcePoint"/>
                        <mxPoint x="350" y="565" as="targetPoint"/>
                        <mxPoint as="offset"/>
                    </mxGeometry>
                </mxCell>
                <mxCell id="41" value="&lt;font style=&quot;font-size: 13px&quot;&gt;Block Reward&lt;br&gt;Contract&lt;/font&gt;" style="rounded=0;whiteSpace=wrap;html=1;fontFamily=Comic Sans MS;fillColor=#d5e8d4;strokeColor=#82b366;fontSize=15;" vertex="1" parent="1">
                    <mxGeometry x="702" y="400" width="136.04" height="60" as="geometry"/>
                </mxCell>
                <mxCell id="44" value="Consensus" style="rounded=0;whiteSpace=wrap;html=1;fontFamily=Comic Sans MS;fillColor=#133629;strokeColor=none;fontSize=15;fontColor=#FFFFFF;" vertex="1" parent="1">
                    <mxGeometry x="533" y="475" width="305" height="30" as="geometry"/>
                </mxCell>
                <mxCell id="45" value="" style="endArrow=classic;dashed=1;html=1;strokeWidth=1;exitX=1;exitY=0.5;exitDx=0;exitDy=0;endFill=1;fontColor=#FFFFFF;labelBackgroundColor=none;strokeColor=#FFFFFF;fontFamily=Comic Sans MS;rounded=0;curved=1;" edge="1" parent="1" source="7" target="41">
                    <mxGeometry x="-0.0631" y="12" width="50" height="50" relative="1" as="geometry">
                        <mxPoint x="332.92857142857133" y="410" as="sourcePoint"/>
                        <mxPoint x="354" y="280" as="targetPoint"/>
                        <mxPoint as="offset"/>
                    </mxGeometry>
                </mxCell>
                <mxCell id="54" value="" style="endArrow=classic;html=1;dashed=1;labelBackgroundColor=none;fontFamily=Comic Sans MS;fontSize=12;fontColor=#FFFFFF;strokeWidth=2;entryX=0.044;entryY=1.013;entryDx=0;entryDy=0;entryPerimeter=0;strokeColor=#FFFFFF;rounded=0;curved=1;" edge="1" parent="1">
                    <mxGeometry width="50" height="50" relative="1" as="geometry">
                        <mxPoint x="741.1700000000001" y="489" as="sourcePoint"/>
                        <mxPoint x="730.0020000000002" y="481.0799999999999" as="targetPoint"/>
                        <Array as="points">
                            <mxPoint x="771.1700000000001" y="481"/>
                            <mxPoint x="771.1700000000001" y="459"/>
                            <mxPoint x="741.1700000000001" y="449"/>
                        </Array>
                    </mxGeometry>
                </mxCell>
                <mxCell id="56" value="Mints xDai in next block" style="text;html=1;strokeColor=none;fillColor=none;align=center;verticalAlign=middle;whiteSpace=wrap;rounded=0;dashed=1;fontFamily=Comic Sans MS;fontSize=10;fontColor=#FFFFFF;" vertex="1" parent="1">
                    <mxGeometry x="770" y="464" width="70" height="30" as="geometry"/>
                </mxCell>
                <mxCell id="57" value="1" style="ellipse;whiteSpace=wrap;html=1;dashed=1;fontFamily=Comic Sans MS;fontSize=12;fontColor=#FFFFFF;strokeColor=none;strokeWidth=2;fillColor=#DD7143;rounded=0;" vertex="1" parent="1">
                    <mxGeometry x="335.68" y="288" width="32" height="32" as="geometry"/>
                </mxCell>
                <mxCell id="58" value="2" style="ellipse;whiteSpace=wrap;html=1;dashed=1;fontFamily=Comic Sans MS;fontSize=12;fontColor=#FFFFFF;strokeColor=none;strokeWidth=2;fillColor=#DD7143;rounded=0;" vertex="1" parent="1">
                    <mxGeometry x="520" y="290" width="30" height="30" as="geometry"/>
                </mxCell>
                <mxCell id="60" value="5" style="ellipse;whiteSpace=wrap;html=1;dashed=1;fontFamily=Comic Sans MS;fontSize=12;fontColor=#FFFFFF;strokeColor=none;strokeWidth=2;fillColor=#DD7143;rounded=0;" vertex="1" parent="1">
                    <mxGeometry x="810" y="504" width="30" height="30" as="geometry"/>
                </mxCell>
                <mxCell id="61" value="4" style="ellipse;whiteSpace=wrap;html=1;dashed=1;fontFamily=Comic Sans MS;fontSize=12;fontColor=#FFFFFF;strokeColor=none;strokeWidth=2;fillColor=#DD7143;rounded=0;" vertex="1" parent="1">
                    <mxGeometry x="798.04" y="380" width="30" height="30" as="geometry"/>
                </mxCell>
                <mxCell id="9" value="" style="rounded=0;whiteSpace=wrap;html=1;fontFamily=Comic Sans MS;" vertex="1" parent="1">
                    <mxGeometry x="203" y="400" width="187" height="60" as="geometry"/>
                </mxCell>
                <mxCell id="10" value="" style="endArrow=classic;startArrow=classic;html=1;fontFamily=Comic Sans MS;entryX=0;entryY=0.5;entryDx=0;entryDy=0;exitX=1;exitY=0.5;exitDx=0;exitDy=0;rounded=0;curved=1;" edge="1" parent="1" source="9" target="7">
                    <mxGeometry width="50" height="50" relative="1" as="geometry">
                        <mxPoint x="377.57142857142844" y="400" as="sourcePoint"/>
                        <mxPoint x="444.05357142857144" y="540" as="targetPoint"/>
                    </mxGeometry>
                </mxCell>
                <mxCell id="11" value="xDai Bridge Contract" style="text;html=1;strokeColor=none;fillColor=none;align=center;verticalAlign=middle;whiteSpace=wrap;rounded=0;fontFamily=Comic Sans MS;fontSize=13;" vertex="1" parent="1">
                    <mxGeometry x="238.16" y="414.5" width="117.68" height="31" as="geometry"/>
                </mxCell>
                <mxCell id="43" value="" style="group;fontFamily=Comic Sans MS;fontSize=11;rounded=0;" vertex="1" connectable="0" parent="1">
                    <mxGeometry x="532.96" y="400" width="147.03999999999996" height="60" as="geometry"/>
                </mxCell>
                <mxCell id="7" value="" style="rounded=0;whiteSpace=wrap;html=1;fontFamily=Comic Sans MS;fillColor=#d5e8d4;strokeColor=#82b366;" vertex="1" parent="43">
                    <mxGeometry width="136.04" height="60" as="geometry"/>
                </mxCell>
                <mxCell id="8" value="xDai Bridge Contract" style="text;html=1;strokeColor=none;fillColor=none;align=center;verticalAlign=middle;whiteSpace=wrap;rounded=0;fontFamily=Comic Sans MS;fontSize=12;" vertex="1" parent="43">
                    <mxGeometry x="14.580000000000041" y="13" width="111.46" height="30" as="geometry"/>
                </mxCell>
                <mxCell id="59" value="3" style="ellipse;whiteSpace=wrap;html=1;dashed=1;fontFamily=Comic Sans MS;fontSize=12;fontColor=#FFFFFF;strokeColor=none;strokeWidth=2;fillColor=#DD7143;rounded=0;" vertex="1" parent="1">
                    <mxGeometry x="583" y="380" width="30" height="30" as="geometry"/>
                </mxCell>
                <mxCell id="63" value="" style="shape=umlActor;verticalLabelPosition=bottom;verticalAlign=top;html=1;outlineConnect=0;fontFamily=Comic Sans MS;fontSize=13;fontColor=#FFFFFF;strokeColor=default;strokeWidth=2;fillColor=none;rounded=0;" vertex="1" parent="1">
                    <mxGeometry x="479" y="205" width="23" height="46" as="geometry"/>
                </mxCell>
                <mxCell id="66" value="" style="shape=umlActor;verticalLabelPosition=bottom;verticalAlign=top;html=1;outlineConnect=0;fontFamily=Comic Sans MS;fontSize=13;fontColor=#FFFFFF;strokeColor=default;strokeWidth=2;fillColor=none;rounded=0;" vertex="1" parent="1">
                    <mxGeometry x="484" y="616" width="23" height="46" as="geometry"/>
                </mxCell>
            </root>
        </mxGraphModel>
    </diagram>
</mxfile>